<mxfile host="app.diagrams.net" agent="Mozilla/5.0 (Windows NT 10.0; Win64; x64) AppleWebKit/537.36 (KHTML, like Gecko) Chrome/129.0.0.0 Safari/537.36" version="24.7.17">
  <diagram name="Page-1" id="mJGDr6KHt1sEaBXJhbv7">
    <mxGraphModel dx="1195" dy="650" grid="1" gridSize="10" guides="1" tooltips="1" connect="1" arrows="1" fold="1" page="1" pageScale="1" pageWidth="827" pageHeight="1169" math="0" shadow="0">
      <root>
        <mxCell id="0" />
        <mxCell id="1" parent="0" />
        <mxCell id="-WrA6DgO2Cb8nDS0-Vmh-2" value="User" style="rounded=1;whiteSpace=wrap;html=1;" parent="1" vertex="1">
          <mxGeometry x="150" y="270" width="120" height="60" as="geometry" />
        </mxCell>
        <mxCell id="-WrA6DgO2Cb8nDS0-Vmh-3" value="Trail" style="rounded=1;whiteSpace=wrap;html=1;" parent="1" vertex="1">
          <mxGeometry x="354" y="120" width="120" height="60" as="geometry" />
        </mxCell>
        <mxCell id="-WrA6DgO2Cb8nDS0-Vmh-7" value="Progress" style="rounded=1;whiteSpace=wrap;html=1;" parent="1" vertex="1">
          <mxGeometry x="150" y="120" width="120" height="60" as="geometry" />
        </mxCell>
        <mxCell id="-WrA6DgO2Cb8nDS0-Vmh-9" value="Rating" style="rounded=1;whiteSpace=wrap;html=1;" parent="1" vertex="1">
          <mxGeometry x="354" y="270" width="120" height="60" as="geometry" />
        </mxCell>
        <mxCell id="-WrA6DgO2Cb8nDS0-Vmh-10" value="" style="endArrow=none;html=1;rounded=0;entryX=0.5;entryY=1;entryDx=0;entryDy=0;exitX=0.5;exitY=0;exitDx=0;exitDy=0;dashed=1;" parent="1" source="-WrA6DgO2Cb8nDS0-Vmh-9" target="-WrA6DgO2Cb8nDS0-Vmh-3" edge="1">
          <mxGeometry width="50" height="50" relative="1" as="geometry">
            <mxPoint x="460" y="230" as="sourcePoint" />
            <mxPoint x="510" y="180" as="targetPoint" />
          </mxGeometry>
        </mxCell>
        <mxCell id="-WrA6DgO2Cb8nDS0-Vmh-15" value="" style="endArrow=none;html=1;rounded=0;entryX=0;entryY=0.5;entryDx=0;entryDy=0;exitX=1;exitY=0.5;exitDx=0;exitDy=0;dashed=1;" parent="1" source="-WrA6DgO2Cb8nDS0-Vmh-7" target="-WrA6DgO2Cb8nDS0-Vmh-3" edge="1">
          <mxGeometry width="50" height="50" relative="1" as="geometry">
            <mxPoint x="360" y="300" as="sourcePoint" />
            <mxPoint x="410" y="250" as="targetPoint" />
          </mxGeometry>
        </mxCell>
        <mxCell id="-WrA6DgO2Cb8nDS0-Vmh-16" value="" style="endArrow=none;html=1;rounded=0;exitX=1;exitY=0.25;exitDx=0;exitDy=0;" parent="1" source="-WrA6DgO2Cb8nDS0-Vmh-7" edge="1">
          <mxGeometry width="50" height="50" relative="1" as="geometry">
            <mxPoint x="250" y="240" as="sourcePoint" />
            <mxPoint x="290" y="150" as="targetPoint" />
          </mxGeometry>
        </mxCell>
        <mxCell id="-WrA6DgO2Cb8nDS0-Vmh-17" value="" style="endArrow=none;html=1;rounded=0;exitX=1;exitY=0.75;exitDx=0;exitDy=0;" parent="1" source="-WrA6DgO2Cb8nDS0-Vmh-7" edge="1">
          <mxGeometry width="50" height="50" relative="1" as="geometry">
            <mxPoint x="250" y="240" as="sourcePoint" />
            <mxPoint x="290" y="150" as="targetPoint" />
          </mxGeometry>
        </mxCell>
        <mxCell id="-WrA6DgO2Cb8nDS0-Vmh-21" value="" style="endArrow=none;html=1;rounded=0;entryX=0.5;entryY=1;entryDx=0;entryDy=0;exitX=0.5;exitY=0;exitDx=0;exitDy=0;dashed=1;" parent="1" source="-WrA6DgO2Cb8nDS0-Vmh-2" target="-WrA6DgO2Cb8nDS0-Vmh-7" edge="1">
          <mxGeometry width="50" height="50" relative="1" as="geometry">
            <mxPoint x="250" y="240" as="sourcePoint" />
            <mxPoint x="300" y="190" as="targetPoint" />
          </mxGeometry>
        </mxCell>
        <mxCell id="-WrA6DgO2Cb8nDS0-Vmh-22" value="" style="endArrow=none;html=1;rounded=0;exitX=0.649;exitY=1.008;exitDx=0;exitDy=0;exitPerimeter=0;" parent="1" source="-WrA6DgO2Cb8nDS0-Vmh-7" edge="1">
          <mxGeometry width="50" height="50" relative="1" as="geometry">
            <mxPoint x="250" y="240" as="sourcePoint" />
            <mxPoint x="210" y="200" as="targetPoint" />
          </mxGeometry>
        </mxCell>
        <mxCell id="-WrA6DgO2Cb8nDS0-Vmh-23" value="" style="endArrow=none;html=1;rounded=0;exitX=0.367;exitY=1.02;exitDx=0;exitDy=0;exitPerimeter=0;" parent="1" source="-WrA6DgO2Cb8nDS0-Vmh-7" edge="1">
          <mxGeometry width="50" height="50" relative="1" as="geometry">
            <mxPoint x="250" y="240" as="sourcePoint" />
            <mxPoint x="210" y="200" as="targetPoint" />
          </mxGeometry>
        </mxCell>
        <mxCell id="-WrA6DgO2Cb8nDS0-Vmh-24" value="" style="endArrow=none;html=1;rounded=0;entryX=1;entryY=0.5;entryDx=0;entryDy=0;exitX=0;exitY=0.5;exitDx=0;exitDy=0;dashed=1;" parent="1" source="-WrA6DgO2Cb8nDS0-Vmh-9" target="-WrA6DgO2Cb8nDS0-Vmh-2" edge="1">
          <mxGeometry width="50" height="50" relative="1" as="geometry">
            <mxPoint x="250" y="240" as="sourcePoint" />
            <mxPoint x="300" y="190" as="targetPoint" />
          </mxGeometry>
        </mxCell>
        <mxCell id="-WrA6DgO2Cb8nDS0-Vmh-25" value="" style="endArrow=none;html=1;rounded=0;entryX=0;entryY=0.25;entryDx=0;entryDy=0;" parent="1" target="-WrA6DgO2Cb8nDS0-Vmh-9" edge="1">
          <mxGeometry width="50" height="50" relative="1" as="geometry">
            <mxPoint x="320" y="300" as="sourcePoint" />
            <mxPoint x="300" y="190" as="targetPoint" />
          </mxGeometry>
        </mxCell>
        <mxCell id="-WrA6DgO2Cb8nDS0-Vmh-26" value="" style="endArrow=none;html=1;rounded=0;entryX=0;entryY=0.75;entryDx=0;entryDy=0;" parent="1" target="-WrA6DgO2Cb8nDS0-Vmh-9" edge="1">
          <mxGeometry width="50" height="50" relative="1" as="geometry">
            <mxPoint x="320" y="300" as="sourcePoint" />
            <mxPoint x="300" y="190" as="targetPoint" />
          </mxGeometry>
        </mxCell>
        <mxCell id="-WrA6DgO2Cb8nDS0-Vmh-34" value="" style="endArrow=none;html=1;rounded=0;exitX=0.345;exitY=-0.009;exitDx=0;exitDy=0;exitPerimeter=0;" parent="1" source="-WrA6DgO2Cb8nDS0-Vmh-9" edge="1">
          <mxGeometry width="50" height="50" relative="1" as="geometry">
            <mxPoint x="320" y="240" as="sourcePoint" />
            <mxPoint x="414" y="240" as="targetPoint" />
          </mxGeometry>
        </mxCell>
        <mxCell id="-WrA6DgO2Cb8nDS0-Vmh-35" value="" style="endArrow=none;html=1;rounded=0;" parent="1" edge="1">
          <mxGeometry width="50" height="50" relative="1" as="geometry">
            <mxPoint x="440" y="270" as="sourcePoint" />
            <mxPoint x="414" y="240" as="targetPoint" />
          </mxGeometry>
        </mxCell>
        <mxCell id="-WrA6DgO2Cb8nDS0-Vmh-37" value="" style="endArrow=none;html=1;rounded=0;entryX=0.5;entryY=1;entryDx=0;entryDy=0;" parent="1" edge="1">
          <mxGeometry width="50" height="50" relative="1" as="geometry">
            <mxPoint x="413.66" y="270" as="sourcePoint" />
            <mxPoint x="413.66" y="230" as="targetPoint" />
          </mxGeometry>
        </mxCell>
        <mxCell id="-WrA6DgO2Cb8nDS0-Vmh-38" value="" style="endArrow=none;html=1;rounded=0;exitX=1;exitY=0.5;exitDx=0;exitDy=0;" parent="1" source="-WrA6DgO2Cb8nDS0-Vmh-7" edge="1">
          <mxGeometry width="50" height="50" relative="1" as="geometry">
            <mxPoint x="290" y="230" as="sourcePoint" />
            <mxPoint x="310" y="150" as="targetPoint" />
          </mxGeometry>
        </mxCell>
        <mxCell id="-WrA6DgO2Cb8nDS0-Vmh-39" value="" style="endArrow=none;html=1;rounded=0;entryX=0.5;entryY=1;entryDx=0;entryDy=0;" parent="1" target="-WrA6DgO2Cb8nDS0-Vmh-7" edge="1">
          <mxGeometry width="50" height="50" relative="1" as="geometry">
            <mxPoint x="210" y="230" as="sourcePoint" />
            <mxPoint x="370" y="190" as="targetPoint" />
          </mxGeometry>
        </mxCell>
        <mxCell id="-WrA6DgO2Cb8nDS0-Vmh-40" value="" style="endArrow=none;html=1;rounded=0;entryX=0;entryY=0.5;entryDx=0;entryDy=0;" parent="1" target="-WrA6DgO2Cb8nDS0-Vmh-9" edge="1">
          <mxGeometry width="50" height="50" relative="1" as="geometry">
            <mxPoint x="310" y="300" as="sourcePoint" />
            <mxPoint x="350" y="300" as="targetPoint" />
          </mxGeometry>
        </mxCell>
        <mxCell id="-WrA6DgO2Cb8nDS0-Vmh-41" value="Trail" style="rounded=1;whiteSpace=wrap;html=1;" parent="1" vertex="1">
          <mxGeometry x="150" y="450" width="120" height="60" as="geometry" />
        </mxCell>
        <mxCell id="-WrA6DgO2Cb8nDS0-Vmh-42" value="Trail characteristics" style="rounded=1;whiteSpace=wrap;html=1;" parent="1" vertex="1">
          <mxGeometry x="353" y="450" width="120" height="60" as="geometry" />
        </mxCell>
        <mxCell id="-WrA6DgO2Cb8nDS0-Vmh-44" value="" style="endArrow=none;html=1;rounded=0;entryX=0;entryY=0.5;entryDx=0;entryDy=0;exitX=1;exitY=0.5;exitDx=0;exitDy=0;" parent="1" source="-WrA6DgO2Cb8nDS0-Vmh-41" target="-WrA6DgO2Cb8nDS0-Vmh-42" edge="1">
          <mxGeometry width="50" height="50" relative="1" as="geometry">
            <mxPoint x="300" y="440" as="sourcePoint" />
            <mxPoint x="350" y="390" as="targetPoint" />
          </mxGeometry>
        </mxCell>
        <mxCell id="-WrA6DgO2Cb8nDS0-Vmh-45" value="" style="endArrow=none;html=1;rounded=0;entryX=0;entryY=0.25;entryDx=0;entryDy=0;" parent="1" target="-WrA6DgO2Cb8nDS0-Vmh-42" edge="1">
          <mxGeometry width="50" height="50" relative="1" as="geometry">
            <mxPoint x="330" y="480" as="sourcePoint" />
            <mxPoint x="350" y="390" as="targetPoint" />
          </mxGeometry>
        </mxCell>
        <mxCell id="-WrA6DgO2Cb8nDS0-Vmh-46" value="" style="endArrow=none;html=1;rounded=0;entryX=0;entryY=0.75;entryDx=0;entryDy=0;" parent="1" target="-WrA6DgO2Cb8nDS0-Vmh-42" edge="1">
          <mxGeometry width="50" height="50" relative="1" as="geometry">
            <mxPoint x="330" y="480" as="sourcePoint" />
            <mxPoint x="350" y="390" as="targetPoint" />
          </mxGeometry>
        </mxCell>
        <mxCell id="uCj4cQKaa_N6qWhLdzL2-1" value="User" style="rounded=1;whiteSpace=wrap;html=1;" vertex="1" parent="1">
          <mxGeometry x="136.5" y="1120" width="120" height="60" as="geometry" />
        </mxCell>
        <mxCell id="uCj4cQKaa_N6qWhLdzL2-2" value="Trail" style="rounded=1;whiteSpace=wrap;html=1;" vertex="1" parent="1">
          <mxGeometry x="340.5" y="970" width="120" height="60" as="geometry" />
        </mxCell>
        <mxCell id="uCj4cQKaa_N6qWhLdzL2-3" value="Progress" style="rounded=1;whiteSpace=wrap;html=1;" vertex="1" parent="1">
          <mxGeometry x="136.5" y="970" width="120" height="60" as="geometry" />
        </mxCell>
        <mxCell id="uCj4cQKaa_N6qWhLdzL2-4" value="Rating" style="rounded=1;whiteSpace=wrap;html=1;" vertex="1" parent="1">
          <mxGeometry x="340.5" y="1120" width="120" height="60" as="geometry" />
        </mxCell>
        <mxCell id="uCj4cQKaa_N6qWhLdzL2-5" value="" style="endArrow=none;html=1;rounded=0;entryX=0.5;entryY=1;entryDx=0;entryDy=0;exitX=0.5;exitY=0;exitDx=0;exitDy=0;dashed=1;" edge="1" parent="1" source="uCj4cQKaa_N6qWhLdzL2-4" target="uCj4cQKaa_N6qWhLdzL2-2">
          <mxGeometry width="50" height="50" relative="1" as="geometry">
            <mxPoint x="446.5" y="1080" as="sourcePoint" />
            <mxPoint x="496.5" y="1030" as="targetPoint" />
          </mxGeometry>
        </mxCell>
        <mxCell id="uCj4cQKaa_N6qWhLdzL2-6" value="" style="endArrow=none;html=1;rounded=0;entryX=0;entryY=0.5;entryDx=0;entryDy=0;exitX=1;exitY=0.5;exitDx=0;exitDy=0;dashed=1;" edge="1" parent="1" source="uCj4cQKaa_N6qWhLdzL2-3" target="uCj4cQKaa_N6qWhLdzL2-2">
          <mxGeometry width="50" height="50" relative="1" as="geometry">
            <mxPoint x="346.5" y="1150" as="sourcePoint" />
            <mxPoint x="396.5" y="1100" as="targetPoint" />
          </mxGeometry>
        </mxCell>
        <mxCell id="uCj4cQKaa_N6qWhLdzL2-7" value="" style="endArrow=none;html=1;rounded=0;exitX=1;exitY=0.25;exitDx=0;exitDy=0;" edge="1" parent="1" source="uCj4cQKaa_N6qWhLdzL2-3">
          <mxGeometry width="50" height="50" relative="1" as="geometry">
            <mxPoint x="236.5" y="1090" as="sourcePoint" />
            <mxPoint x="276.5" y="1000" as="targetPoint" />
          </mxGeometry>
        </mxCell>
        <mxCell id="uCj4cQKaa_N6qWhLdzL2-8" value="" style="endArrow=none;html=1;rounded=0;exitX=1;exitY=0.75;exitDx=0;exitDy=0;" edge="1" parent="1" source="uCj4cQKaa_N6qWhLdzL2-3">
          <mxGeometry width="50" height="50" relative="1" as="geometry">
            <mxPoint x="236.5" y="1090" as="sourcePoint" />
            <mxPoint x="276.5" y="1000" as="targetPoint" />
          </mxGeometry>
        </mxCell>
        <mxCell id="uCj4cQKaa_N6qWhLdzL2-9" value="" style="endArrow=none;html=1;rounded=0;entryX=0.5;entryY=1;entryDx=0;entryDy=0;exitX=0.5;exitY=0;exitDx=0;exitDy=0;dashed=1;" edge="1" parent="1" source="uCj4cQKaa_N6qWhLdzL2-1" target="uCj4cQKaa_N6qWhLdzL2-3">
          <mxGeometry width="50" height="50" relative="1" as="geometry">
            <mxPoint x="236.5" y="1090" as="sourcePoint" />
            <mxPoint x="286.5" y="1040" as="targetPoint" />
          </mxGeometry>
        </mxCell>
        <mxCell id="uCj4cQKaa_N6qWhLdzL2-10" value="" style="endArrow=none;html=1;rounded=0;exitX=0.649;exitY=1.008;exitDx=0;exitDy=0;exitPerimeter=0;" edge="1" parent="1" source="uCj4cQKaa_N6qWhLdzL2-3">
          <mxGeometry width="50" height="50" relative="1" as="geometry">
            <mxPoint x="236.5" y="1090" as="sourcePoint" />
            <mxPoint x="196.5" y="1050" as="targetPoint" />
          </mxGeometry>
        </mxCell>
        <mxCell id="uCj4cQKaa_N6qWhLdzL2-11" value="" style="endArrow=none;html=1;rounded=0;exitX=0.367;exitY=1.02;exitDx=0;exitDy=0;exitPerimeter=0;" edge="1" parent="1" source="uCj4cQKaa_N6qWhLdzL2-3">
          <mxGeometry width="50" height="50" relative="1" as="geometry">
            <mxPoint x="236.5" y="1090" as="sourcePoint" />
            <mxPoint x="196.5" y="1050" as="targetPoint" />
          </mxGeometry>
        </mxCell>
        <mxCell id="uCj4cQKaa_N6qWhLdzL2-12" value="" style="endArrow=none;html=1;rounded=0;entryX=1;entryY=0.5;entryDx=0;entryDy=0;exitX=0;exitY=0.5;exitDx=0;exitDy=0;dashed=1;" edge="1" parent="1" source="uCj4cQKaa_N6qWhLdzL2-4" target="uCj4cQKaa_N6qWhLdzL2-1">
          <mxGeometry width="50" height="50" relative="1" as="geometry">
            <mxPoint x="236.5" y="1090" as="sourcePoint" />
            <mxPoint x="286.5" y="1040" as="targetPoint" />
          </mxGeometry>
        </mxCell>
        <mxCell id="uCj4cQKaa_N6qWhLdzL2-13" value="" style="endArrow=none;html=1;rounded=0;entryX=0;entryY=0.25;entryDx=0;entryDy=0;" edge="1" parent="1" target="uCj4cQKaa_N6qWhLdzL2-4">
          <mxGeometry width="50" height="50" relative="1" as="geometry">
            <mxPoint x="306.5" y="1150" as="sourcePoint" />
            <mxPoint x="286.5" y="1040" as="targetPoint" />
          </mxGeometry>
        </mxCell>
        <mxCell id="uCj4cQKaa_N6qWhLdzL2-14" value="" style="endArrow=none;html=1;rounded=0;entryX=0;entryY=0.75;entryDx=0;entryDy=0;" edge="1" parent="1" target="uCj4cQKaa_N6qWhLdzL2-4">
          <mxGeometry width="50" height="50" relative="1" as="geometry">
            <mxPoint x="306.5" y="1150" as="sourcePoint" />
            <mxPoint x="286.5" y="1040" as="targetPoint" />
          </mxGeometry>
        </mxCell>
        <mxCell id="uCj4cQKaa_N6qWhLdzL2-15" value="" style="endArrow=none;html=1;rounded=0;exitX=0.345;exitY=-0.009;exitDx=0;exitDy=0;exitPerimeter=0;" edge="1" parent="1" source="uCj4cQKaa_N6qWhLdzL2-4">
          <mxGeometry width="50" height="50" relative="1" as="geometry">
            <mxPoint x="306.5" y="1090" as="sourcePoint" />
            <mxPoint x="400.5" y="1090" as="targetPoint" />
          </mxGeometry>
        </mxCell>
        <mxCell id="uCj4cQKaa_N6qWhLdzL2-16" value="" style="endArrow=none;html=1;rounded=0;" edge="1" parent="1">
          <mxGeometry width="50" height="50" relative="1" as="geometry">
            <mxPoint x="426.5" y="1120" as="sourcePoint" />
            <mxPoint x="400.5" y="1090" as="targetPoint" />
          </mxGeometry>
        </mxCell>
        <mxCell id="uCj4cQKaa_N6qWhLdzL2-17" value="" style="endArrow=none;html=1;rounded=0;entryX=0.5;entryY=1;entryDx=0;entryDy=0;" edge="1" parent="1">
          <mxGeometry width="50" height="50" relative="1" as="geometry">
            <mxPoint x="400.1600000000001" y="1120" as="sourcePoint" />
            <mxPoint x="400.1600000000001" y="1080" as="targetPoint" />
          </mxGeometry>
        </mxCell>
        <mxCell id="uCj4cQKaa_N6qWhLdzL2-18" value="" style="endArrow=none;html=1;rounded=0;exitX=1;exitY=0.5;exitDx=0;exitDy=0;" edge="1" parent="1" source="uCj4cQKaa_N6qWhLdzL2-3">
          <mxGeometry width="50" height="50" relative="1" as="geometry">
            <mxPoint x="276.5" y="1080" as="sourcePoint" />
            <mxPoint x="296.5" y="1000" as="targetPoint" />
          </mxGeometry>
        </mxCell>
        <mxCell id="uCj4cQKaa_N6qWhLdzL2-19" value="" style="endArrow=none;html=1;rounded=0;entryX=0.5;entryY=1;entryDx=0;entryDy=0;" edge="1" parent="1" target="uCj4cQKaa_N6qWhLdzL2-3">
          <mxGeometry width="50" height="50" relative="1" as="geometry">
            <mxPoint x="196.5" y="1080" as="sourcePoint" />
            <mxPoint x="356.5" y="1040" as="targetPoint" />
          </mxGeometry>
        </mxCell>
        <mxCell id="uCj4cQKaa_N6qWhLdzL2-20" value="" style="endArrow=none;html=1;rounded=0;entryX=0;entryY=0.5;entryDx=0;entryDy=0;" edge="1" parent="1" target="uCj4cQKaa_N6qWhLdzL2-4">
          <mxGeometry width="50" height="50" relative="1" as="geometry">
            <mxPoint x="296.5" y="1150" as="sourcePoint" />
            <mxPoint x="336.5" y="1150" as="targetPoint" />
          </mxGeometry>
        </mxCell>
        <mxCell id="uCj4cQKaa_N6qWhLdzL2-22" value="Trail characteristics" style="rounded=1;whiteSpace=wrap;html=1;" vertex="1" parent="1">
          <mxGeometry x="543.5" y="970" width="120" height="60" as="geometry" />
        </mxCell>
        <mxCell id="uCj4cQKaa_N6qWhLdzL2-24" value="" style="endArrow=none;html=1;rounded=0;entryX=0;entryY=0.5;entryDx=0;entryDy=0;exitX=1;exitY=0.5;exitDx=0;exitDy=0;" edge="1" parent="1" target="uCj4cQKaa_N6qWhLdzL2-22">
          <mxGeometry width="50" height="50" relative="1" as="geometry">
            <mxPoint x="460.5" y="1000" as="sourcePoint" />
            <mxPoint x="540.5" y="910" as="targetPoint" />
          </mxGeometry>
        </mxCell>
        <mxCell id="uCj4cQKaa_N6qWhLdzL2-25" value="" style="endArrow=none;html=1;rounded=0;entryX=0;entryY=0.25;entryDx=0;entryDy=0;" edge="1" parent="1" target="uCj4cQKaa_N6qWhLdzL2-22">
          <mxGeometry width="50" height="50" relative="1" as="geometry">
            <mxPoint x="520.5" y="1000" as="sourcePoint" />
            <mxPoint x="540.5" y="910" as="targetPoint" />
          </mxGeometry>
        </mxCell>
        <mxCell id="uCj4cQKaa_N6qWhLdzL2-26" value="" style="endArrow=none;html=1;rounded=0;entryX=0;entryY=0.75;entryDx=0;entryDy=0;" edge="1" parent="1" target="uCj4cQKaa_N6qWhLdzL2-22">
          <mxGeometry width="50" height="50" relative="1" as="geometry">
            <mxPoint x="520.5" y="1000" as="sourcePoint" />
            <mxPoint x="540.5" y="910" as="targetPoint" />
          </mxGeometry>
        </mxCell>
      </root>
    </mxGraphModel>
  </diagram>
</mxfile>
